<?xml version="1.0"?>
<svg xmlns="http://www.w3.org/2000/svg" height="512" viewBox="-53 0 512 512" width="512"><g><path d="m325.886719 512h-245.886719c-44.113281 0-80-35.886719-80-80v-352c0-44.113281 35.886719-80 80-80h245.890625c44.109375 0 80 35.886719 80 80v252c0 11.046875-8.957031 20-20 20-11.046875 0-20-8.953125-20-20v-252c0-22.054688-17.945313-40-40-40h-245.890625c-22.054688 0-40 17.945312-40 40v352c0 22.054688 17.945312 40 40 40h245.890625c22.054687 0 40-17.945312 40-40 0-11.046875 8.953125-20 20-20 11.042969 0 20 8.953125 20 20-.003906 44.113281-35.890625 80-80.003906 80zm-138.945313-161.171875c14.316406-.953125 27.679688-7.914063 36.667969-19.09375.230469-.292969.453125-.585937.671875-.886719l98.980469-138.261718c6.429687-8.980469 4.359375-21.476563-4.621094-27.902344-8.980469-6.429688-21.476563-4.363282-27.902344 4.617187l-98.582031 137.703125c-2.691406 3.121094-6.066406 3.792969-7.875 3.914063-1.859375.128906-5.472656-.113281-8.570312-3.0625l-63.820313-61.28125c-7.96875-7.652344-20.628906-7.394531-28.277344.574219-7.648437 7.964843-7.394531 20.628906.574219 28.277343l63.882812 61.339844c9.570313 9.109375 22.339844 14.175781 35.480469 14.175781 1.128907 0 2.257813-.035156 3.390625-.113281zm0 0" data-original="#000000" class="active-path" data-old_color="#000000" style="fill:#FFFFFF"/></g> </svg>
