<?xml version="1.0"?>
<svg xmlns="http://www.w3.org/2000/svg" height="512" viewBox="0 -20 512 512" width="512"><g><path d="m330.921875 368.796875 26.023437-25.796875h-110.945312c-11.046875 0-20-8.953125-20-20s8.953125-20 20-20h110.945312l-26.023437-25.796875c-7.847656-7.773437-7.902344-20.4375-.125-28.28125 7.773437-7.847656 20.4375-7.902344 28.28125-.125l39.136719 38.785156c9.535156 9.449219 14.785156 22.027344 14.785156 35.417969s-5.25 25.96875-14.785156 35.417969l-39.136719 38.785156c-3.898437 3.867187-8.988281 5.796875-14.078125 5.796875-5.148438 0-10.296875-1.976562-14.203125-5.921875-7.777344-7.84375-7.722656-20.507813.125-28.28125zm-39.921875-134.796875c0-11.046875-8.953125-20-20-20h-112.957031l27.035156-26.796875c7.847656-7.773437 7.902344-20.4375.125-28.28125-7.773437-7.847656-20.4375-7.902344-28.28125-.125l-39.136719 38.785156c-9.535156 9.449219-14.785156 22.027344-14.785156 35.417969s5.25 25.96875 14.785156 35.417969l39.136719 38.785156c3.898437 3.867187 8.988281 5.796875 14.078125 5.796875 5.148438 0 10.296875-1.976562 14.203125-5.921875 7.777344-7.84375 7.722656-20.507813-.125-28.28125l-25.015625-24.796875h110.9375c11.046875 0 20-8.953125 20-20zm221-174v232c0 11.046875-8.953125 20-20 20s-20-8.953125-20-20v-171h-432v271c0 22.054688 17.945312 40 40 40h352c22.054688 0 40-17.945312 40-40 0-11.046875 8.953125-20 20-20s20 8.953125 20 20c0 44.113281-35.886719 80-80 80h-352c-44.113281 0-80-35.886719-80-80v-332c0-33.085938 26.914062-60 60-60h392c33.085938 0 60 26.914062 60 60zm-161 0c0 11.027344 8.972656 20 20 20s20-8.972656 20-20-8.972656-20-20-20-20 8.972656-20 20zm100-20c-11.027344 0-20 8.972656-20 20s8.972656 20 20 20 20-8.972656 20-20-8.972656-20-20-20zm-411 41h274.800781c-2.453125-6.539062-3.800781-13.613281-3.800781-21 0-7.011719 1.21875-13.738281 3.441406-20h-254.441406c-11.027344 0-20 8.972656-20 20zm0 0" data-original="#000000" class="active-path" data-old_color="#000000" style="fill:#FFFFFF"/></g> </svg>
